<svg width="35" height="34" viewBox="0 0 35 34" fill="none" xmlns="http://www.w3.org/2000/svg">
<path d="M34.603 33.9999V33.9985H34.6115V21.529C34.6115 15.4288 33.2983 10.7297 26.1668 10.7297C22.7384 10.7297 20.4378 12.6111 19.4985 14.3947H19.3993V11.2992H12.6376V33.9985H19.6784V22.7587C19.6784 19.7992 20.2394 16.9376 23.9043 16.9376C27.5154 16.9376 27.5693 20.3149 27.5693 22.9485V33.9999H34.603Z" fill="#9FB0CE"/>
<path d="M1.17249 11.3008H8.22183V34H1.17249V11.3008Z" fill="#9FB0CE"/>
<path d="M4.69428 0C2.44037 0 0.61145 1.82892 0.61145 4.08283C0.61145 6.33675 2.44037 8.20392 4.69428 8.20392C6.9482 8.20392 8.77712 6.33675 8.77712 4.08283C8.7757 1.82892 6.94678 0 4.69428 0V0Z" fill="#9FB0CE"/>
</svg>
