<svg width="37" height="35" viewBox="0 0 37 35" fill="none" xmlns="http://www.w3.org/2000/svg">
<path d="M18.6406 0.3125C8.66973 0.3125 0.59375 8.19845 0.59375 17.9347C0.59375 25.7326 5.75967 32.3189 12.9333 34.6538C13.8356 34.808 14.174 34.2794 14.174 33.8168C14.174 33.3983 14.1515 32.0105 14.1515 30.5346C9.61719 31.3497 8.44414 29.4553 8.0832 28.464C7.88018 27.9574 7.00039 26.3934 6.2334 25.9749C5.60176 25.6445 4.69941 24.8294 6.21084 24.8074C7.63203 24.7854 8.64717 26.085 8.98555 26.6137C10.6098 29.2791 13.204 28.5301 14.2417 28.0675C14.3996 26.9221 14.8733 26.1511 15.3922 25.7106C11.3768 25.27 7.18086 23.7501 7.18086 17.0096C7.18086 15.0932 7.88018 13.5072 9.03066 12.2736C8.8502 11.833 8.21855 10.0268 9.21113 7.6037C9.21113 7.6037 10.7226 7.14112 14.174 9.40998C15.6178 9.01348 17.1518 8.81523 18.6857 8.81523C20.2197 8.81523 21.7537 9.01348 23.1975 9.40998C26.6489 7.11909 28.1604 7.6037 28.1604 7.6037C29.1529 10.0268 28.5213 11.833 28.3408 12.2736C29.4913 13.5072 30.1906 15.0711 30.1906 17.0096C30.1906 23.7721 25.9722 25.27 21.9567 25.7106C22.6109 26.2612 23.1749 27.3186 23.1749 28.9707C23.1749 31.3276 23.1523 33.222 23.1523 33.8168C23.1523 34.2794 23.4907 34.8301 24.3931 34.6538C27.9759 33.4731 31.0892 31.2249 33.2947 28.2256C35.5003 25.2263 36.6869 21.6271 36.6875 17.9347C36.6875 8.19845 28.6115 0.3125 18.6406 0.3125Z" fill="#9FB0CE"/>
</svg>
